<svg xmlns="http://www.w3.org/2000/svg" xml:space="preserve" width="100" height="40" style="shape-rendering:geometricPrecision;text-rendering:geometricPrecision;image-rendering:optimizeQuality;fill-rule:evenodd;clip-rule:evenodd" viewBox="0 0 4233320 1143000">
  <defs>
    <style>
      .fil0{fill:#107f8c}
    </style>
  </defs>
  <g>
    <metadata id="CorelCorpID_0Corel-Layer"/>
      <path class="fil0" d="m1446250 536260-232150 365780c-21160 34520-42330 69050-63440 103600-5440 8850-16090 25350-27980 25350-12490 0-17160-9690-17160-20960v-39580l-2320-59850-2350-76040-15980-291360-107890 312630c-7020 20350-12520 41640-17650 62550-2630 10740-5070 21630-6890 32540-1170 7090-2240 14710-2240 21930 0 6730 1070 15530 7190 19610 7800 5200 20910 8060 29990 9660l14230 2480 280 70c7750 2220 12570 7680 12570 15890 0 5380-2170 10070-6480 13340-4660 3540-11190 4360-16900 4360-12400 0-25350-1250-37690-2450-7170-690-14330-1330-21520-1810-5000-330-10080-590-15100-590-10100 0-20480 30-30550 790-13230 1020-26440 2020-39680 3040-3360 250-6730 510-10120 740-1280 100-2750 280-4030 280-6220 0-13180-1300-16980-6760-1790-2530-2530-5460-2530-8520 0-12190 7630-18510 19510-18510h13920c19130 0 35070-6250 45650-22620 2910-4460 5380-9770 7600-14590 3820-8330 7290-16850 10680-25370 10690-27030 20430-54620 29910-82080l94460-273310c5120-14890 9760-30070 14220-45160 2380-8010 4700-16090 6610-24230 820-3520 2060-8690 2060-12310 0-2990-430-6170-3490-7420-5560-2270-15960-2430-21900-2430h-19360c-5150 0-10780-510-15600-2420-6150-2470-8520-8160-8520-14480 0-6840 2680-12980 9510-15380 5640-1960 12570-2320 18490-2320h100l61810 2420 56410-2420h130c9230 0 18740 2630 22560 11930 2040 5030 2630 13260 3010 18640 770 11250 890 22670 890 33950l19950 369390 254640-405400c3160-5050 6370-10100 9690-15020 1780-2650 3900-5840 6090-8130 3980-4160 9720-5360 15250-5360h100l61840 2420 58700-2420h130c10250 0 17160 5480 17160 16090 0 11420-6320 18510-17920 18510h-20910c-6790 0-21090 590-26010 6200-8850 10100-16730 43810-19670 56760l-72770 321180c-3240 14300-6500 28630-9720 42960-2090 9410-4210 18820-6120 28260-1200 5990-2320 12030-3130 18080-540 4080-1000 8330-1000 12440 0 12370 5480 18640 17700 20450l21670 3240c9590 1430 21020 5690 21020 17260 0 12040-9490 16480-20280 16480-6300 0-12620-280-18890-620-8830-480-17650-1120-26470-1810-8770-710-17570-1350-26370-1810-6270-350-12570-610-18840-610-7090 0-14180 280-21240 610-10080 460-20180 1100-30250 1810-17800 1230-35980 2430-53800 2430-10080 0-17160-5180-17160-15740 0-11370 9300-16370 19380-17970l150-30 24170-2450c14030-1430 26240-6550 34780-18080 6510-8800 11430-20750 15130-31010 6190-17110 10860-35130 14890-52860l82820-363860zm608610 400740c-2750 10600-5480 21210-8080 31850-950 3740-1840 7540-2580 11340-300 1630-760 3880-760 5540 0 1910 330 3770 1200 5480 5100 10070 27200 10810 36590 10810 5890 0 13790 0 19510 1400 7240 1760 9280 8880 9280 15510 0 6020-1970 11570-7040 15120-4390 3030-9510 4210-14790 4210-15220 0-30930-1230-46100-2430-8800-710-17570-1350-26370-1810-6270-350-12600-610-18870-610-6480 0-12980 280-19460 610-9380 460-18740 1100-28120 1810-9520 690-19050 1330-28590 1810-6860 340-13740 620-20600 620-7780 0-17240-1410-21780-8600-1660-2600-2370-5580-2370-8670 0-13130 11500-17870 22870-18940l260-30h31230c12680 0 20910-7450 26850-18180 2430-4360 4370-9970 5970-14690 3060-8900 5710-17980 8260-27030l93130-331350-375620 336860-2620 7600c-1970 5400-3290 11420-4440 17060-920 4460-2220 10500-2220 15070 0 1480 260 2910 870 4260 4590 9790 28130 10400 36920 10400 5890 0 13800 0 19510 1400 7240 1760 9280 8880 9280 15510 0 6020-1960 11600-7030 15120-4390 3030-9520 4210-14790 4210-15230 0-30940-1230-46110-2430-8800-710-17570-1350-26370-1810-6270-350-12590-610-18870-610-6470 0-12980 280-19450 610-9390 460-18770 1100-28130 1810-9510 690-19050 1330-28580 1810-6860 340-13750 620-20610 620-7780 0-17240-1410-21780-8600-1650-2620-2370-5610-2370-8670 0-13130 11530-17870 22880-18940l250-30h31210c12700 0 20960-7500 26880-18230 2420-4390 4340-10020 5940-14770 3060-8920 5710-18020 8290-27100l106050-374440c2450-8670 4850-17370 7120-26090 1550-5990 3080-12010 4360-18080 560-3540 1040-7110 1450-10680-50-7020-1860-12810-9280-14590-7470-1790-15350-3090-23050-3090-12800 0-24150-4970-24150-19330 0-4840 1860-9050 5870-11850 4250-2990 10880-3420 15930-3420 15840 0 31830 920 47610 2010 7470 540 14940 1080 22420 1530 3160 210 6550 510 9710 510 16980 0 34170-960 51130-2040 8640-530 17260-1070 25910-1500 4460-230 9050-510 13510-510 9440 0 17980 3900 17980 14460 0 11070-6380 17870-17240 19280-9030 1200-18050 2420-27050 3640-6580 900-13750 3040-18210 8240-2700 3110-5130 8820-6630 12620-3370 8320-6040 17110-8490 25760l-95400 336930 376200-338280 1860-6510c1460-5200 2860-10430 3980-15680 510-2320 1250-5580 1250-7960 0-4280-580-10320-5150-12260-3260-1400-7090-2300-10560-3010-5610-1170-11320-1960-17000-2630-12650-100-23800-5100-23800-19330 0-4810 1870-9050 5870-11850 4260-2990 10890-3420 15940-3420 15860 0 31820 920 47630 2010 7470 540 14920 1080 22390 1530 3160 210 6580 510 9720 510 16980 0 34170-960 51120-2040 8620-530 17270-1070 25910-1500 4460-230 9050-510 13540-510 9410 0 17950 3900 17950 14460 0 11070-6350 17870-17230 19280-9030 1200-18030 2420-27060 3640-6530 900-13740 3060-18210 8240-2670 3110-5100 8820-6630 12620-3340 8320-6040 17140-8490 25760l-111460 392650zm302020-144890-41410 144960c-2010 7040-3950 14130-5710 21240-1150 4590-2250 9210-3090 13850-860 4690-1730 9380-2620 14050 100 5150 1780 9130 6600 11550 8010 4010 26270 4260 35090 4260h10020c7270 0 15730 1400 20070 7930 1810 2680 2550 5790 2550 8980 0 5990-1960 11570-7010 15090-4390 3060-9540 4240-14820 4240-6910 0-13870-280-20780-620-9740-480-19460-1120-29170-1810-9620-710-19260-1350-28890-1810-6740-330-13520-610-20250-610-6480 0-12980 280-19460 610-9380 460-18770 1100-28120 1810-9520 690-19050 1330-28590 1810-6830 340-13720 620-20580 620-7800 0-17240-1410-21780-8570-1650-2630-2370-5610-2370-8700 0-13130 11500-17870 22850-18940l260-30h31210c12880 0 21060-8060 26850-18950l20-50v-50c2430-4380 4390-9840 6020-14560 3060-8720 5690-17620 8210-26490l106060-374440c3310-11710 6580-23570 9200-35420 1280-5720 2960-13260 2960-19130 0-8870-4050-13560-12570-15660-6250-1070-12980-1650-19280-2320-12670-70-23870-5070-23870-19330 0-3060 720-5990 2480-8490 3820-5480 10780-6780 17030-6780 20150 0 40470 790 60620 1610 19960 810 40130 1600 60150 1600 21600 0 43220-480 64820-1200 20400-660 40770-1320 61150-2010h200c40830 0 85710 7600 116130 37200 24020 23390 32610 54500 32610 87390 0 23590-5610 46340-15140 67830-17780 40110-47430 70260-85120 92420-61740 36330-137370 46920-207950 46920h-44580zm749500-199210c-3110 7140-8600 12160-16680 12160-11240 0-16340-7800-16400-18330l-1550-24300v-180c0-15630-2190-37610-15630-48020-18950-14640-61280-16040-84100-16040h-20730l-57050 3040-60410 213360h99510c15500 0 32230-2840 44370-13240l100-80 70-70c3750-2960 7580-7880 10410-11680 5530-7420 10580-15380 15370-23260l10870-17870 50-50c4230-6660 10270-12290 18610-12290 8700 0 14870 4660 14870 13710 0 8160-3600 18240-6580 25730-10050 25070-18720 50670-26190 76610-6700 23380-12900 47090-17670 70940-820 4130-1660 8230-2550 12340-430 2010-870 4280-1500 6250l-80 250-100 230c-3090 7190-8540 12340-16700 12340-10310 0-14870-7490-14870-17080v-80l790-29630c0-12880-1020-40520-13080-48810-8950-6170-40420-6420-51030-6420h-75500l-48430 174370c-1990 7160-3920 14380-5660 21620-1170 4770-2290 9640-3110 14480-1050 6070-1860 12450-1860 18620 0 7570 1990 14000 9540 16780 5040 1880 11140 2780 16470 3360 8750 950 17700 1180 26490 1180h23230c42720 0 109090-3650 144440-30910 6270-4820 12980-14380 17410-20880 9410-13800 17930-28560 26040-43170 3620-6560 9150-12730 17240-12730 9610 0 15630 5560 15630 15280 0 3870-1000 7870-2250 11520-1370 4060-2780 8080-4230 12110l-13110 42790c-5200 16990-10270 34020-15500 51000l-260 870-530 740c-6250 8720-26750 8800-36260 8800h-154050c-8060 0-16160-280-24220-620-12170-480-24330-1120-36470-1810-10810-610-21600-1220-32410-1810-2880-150-5790-330-8690-460-1150-50-2350-150-3500-150-7650 0-15320 280-22970 610-10790 460-21600 1100-32390 1810-18820 1230-38020 2430-56890 2430-7830 0-17470-1360-21930-8670-1530-2500-2190-5330-2190-8240 0-12980 11730-17470 22850-18490l250-20h31210c12730 0 20960-7550 26880-18290 2420-4380 4340-10020 5970-14760 3030-8950 5710-18080 8290-27160l106020-375080v-50c3370-11270 6630-22690 9210-34190 1330-5920 2960-13440 2960-19510 0-4850-690-11660-5540-14210-5550-2900-12080-3850-18300-3850h-15100l-410-50c-10660-1580-16370-8690-16370-19380 0-4890 1730-9280 5710-12260 4260-3220 10940-3700 16090-3700h347590c6940 0 15560 1200 19360 7830 1170 2010 1680 4280 1680 6630 0 3540-2190 9200-3470 12490-2470 6480-4710 13030-6880 19610-2650 8060-5050 16220-7240 24410-2200 8110-4390 16210-6610 24300l-4610 16960c-1200 4610-2430 9250-3700 13840-540 1910-1200 4670-2040 6480zm635460-97950c-7650 970-18440 3290-23440 9640-2830 3600-5150 9130-6800 13340-3170 8110-5720 16600-8090 24960l-111460 393880c-2780 10630-5480 21290-8110 31950-920 3770-1810 7570-2550 11400-300 1630-760 3870-760 5560 0 1910 330 3790 1200 5500 5100 10100 27180 10840 36590 10840 5890 0 13770 0 19510 1400 7240 1760 9280 8880 9280 15510 0 6020-1990 11570-7070 15120-4360 3030-9480 4210-14760 4210-15250 0-30930-1230-46130-2430-8770-710-17570-1350-26370-1810-6270-350-12570-610-18870-610-6470 0-12980 280-19430 610-9380 460-18770 1100-28120 1810-9540 690-19050 1330-28590 1810-6860 340-13740 620-20600 620-7780 0-17240-1410-21810-8600-1630-2620-2340-5610-2340-8670 0-13130 11500-17870 22870-18940l260-30h31230c12700 0 20940-7570 26860-18280 2420-4390 4330-10070 5940-14820 3030-8950 5680-18100 8260-27210l53750-190070h-273310l-53040 185380c-1960 7090-3900 14180-5680 21320-1120 4560-2270 9210-3110 13820-870 4690-1710 9380-2600 14050 50 1730 380 3440 1170 5000 5100 10070 27210 10810 36590 10810 5890 0 13800 0 19510 1400 7240 1760 9310 8880 9310 15510 0 6020-1990 11570-7040 15090-4390 3060-9540 4240-14790 4240-15250 0-30930-1230-46130-2430-8770-710-17570-1350-26370-1810-6270-350-12570-610-18870-610-6480 0-12980 280-19460 610-9380 460-18760 1100-28120 1810-9510 690-19050 1330-28590 1810-6830 340-13720 620-20580 620-7800 0-17230-1410-21770-8570-1660-2630-2370-5610-2370-8700 0-13130 11500-17870 22840-18940l260-30h31240c12700 0 20930-7520 26850-18230 2420-4390 4330-10020 5940-14770 3060-8920 5710-18050 8290-27100l106030-374390c3110-11990 6470-23920 10070-35780 1500-5920 2910-12670 2910-18820 0-5250-690-12140-6710-13690-8390-2220-17320-3420-25960-4290-12650-70-23840-5100-23840-19330 0-3060 740-5990 2500-8510 3820-5460 10760-6760 17000-6760 16350 0 32850 890 49140 2010 7680 540 15330 1080 23000 1530 3220 210 6690 510 9900 510 16980 0 34170-960 51130-2040 8640-530 17260-1070 25900-1500 4490-230 9080-510 13540-510 9440 0 17960 3900 17960 14460 0 6170-1810 12420-7630 15450-5120 2680-13180 3900-18890 4640l-360 50h-12390c-7350 970-17800 3220-22830 9080-2830 3290-5300 9030-6930 13030-3390 8420-6120 17320-8600 26040l-48290 170670h274070l41410-146500c3190-12190 6530-24330 10080-36440 1400-5560 2900-12240 2900-17980 0-7110-2750-11670-9480-14170-2200-740-5260-1200-7550-1580-5200-850-10460-1510-15680-2150-12650-100-23800-5100-23800-19330 0-2880 690-5680 2300-8100 3880-5870 11420-7170 17980-7170 16220 0 32560 890 48750 2010 7580 540 15120 1080 22700 1530 3190 210 6630 510 9820 510 16980 0 34170-960 51120-2040 8620-530 17270-1070 25910-1500 4460-230 9050-510 13520-510 9430 0 17950 3880 17950 14460 0 7040-2880 13000-9440 15990-5170 2370-10830 3590-16500 4130l-250 20h-13080zm413990 30580 17010 428470v130c0 9080 330 31260 5330 39140 4160 6510 15600 8730 22740 9570h13060l260 20c5120 460 12080 1560 15470 5890 2580 3270 3520 7300 3520 11380 0 12130-7830 18130-19500 18130-14280 0-28950-1330-43150-2860-7190-760-14360-1500-21550-2120-3900-330-8000-680-11930-680-6840 0-13750 330-20580 710-10020 560-20040 1300-30040 2120-9920 790-19840 1550-29760 2110-6450 380-13000 720-19480 720-11220 0-17930-6400-17930-17700 0-10910 6050-17720 17140-17720h17520c7620-820 21750-2910 27460-8290 10940-10330 12170-35780 12170-49730l-5180-123570h-179090l-57190 82190c-6350 9130-12520 18410-18360 27840-4160 6760-8220 13650-11810 20710-2810 5510-8290 16800-8290 23080 0 4940 1150 9590 4640 13230l80 80 80 100c6420 7320 17360 10070 26640 11170h80l22540 3260c9670 1410 21800 5380 21800 17240 0 6530-1980 13180-8590 15760-4440 1760-9280 2350-14020 2350-15000 0-30400-1200-45340-2450-8470-690-16940-1330-25400-1790-5820-330-11680-610-17520-610-10580 0-21520 0-32080 790-13620 1020-27230 2040-40850 3040-3470 250-6940 510-10400 760-1300 80-2810 260-4130 260-10920 0-19490-4980-19490-16880 0-5720 2070-11000 7450-13520 4160-1960 9230-2830 13770-3340 26520-3030 48500-23380 64510-43250 3980-4920 7810-10270 11560-15350 9100-12290 18100-24630 27050-37000l290750-401190c8670-11930 17370-23840 26140-35700 3950-5360 8010-10660 11880-16070l80-100 80-130c4130-5170 10350-11780 17510-11780 4520 0 9460 1130 11610 5590 1480 3060 1730 7140 1730 10500v65490zM10170 225090c1200-260 2420-510 3620-770 3110-630 6600-1830 8870-4150 2630-2680 4360-8140 5310-11660L70450 55130l30-50c380-1300 690-2630 1020-3930v-70l20-60c510-1880 1630-5730 1690-7620v-510c-30-80-60-150-80-200l-230-790v-850c0-710 130-1370 310-2060v-30c-60-690-210-1350-720-1860-890-840-2500-1170-3650-1270l-580-50-560-210c-2580-810-5380-1350-8040-1830-5100-950-11110-3400-11110-9540v-1860l1090-1480c1000-1300 2120-2680 3450-3650 1530-1120 3340-1710 5220-1710 1280 0 2760 230 4010 360 12870 1300 25830 1840 38760 1840 9530 0 19050-640 28510-1840h100c1370-150 2930-360 4330-360 2530 0 5130 410 7370 1640 2780 1530 4590 4130 4590 7360 0 6560-7140 8750-12390 9690h-50l-50 30c-2550 380-5130 840-7600 1450l-80 30-70 20c-3060 690-5690 2040-7650 4490-2860 3620-5260 12120-6480 16530L73940 194560l-50 180c-280 770-480 1580-710 2370-1380 4800-2880 10790-2880 15790 0 1300 150 4770 1070 5840 740 810 3290 940 4280 940h68060c4670 0 11860-480 15760-3420 3880-2930 6300-9460 7600-13940l41210-147160c760-2730 1580-5510 2220-8270 180-860 530-2290 530-3180v-340l-20-100c-50-350-130-710-210-1040l-70-510v-510c0-740 120-1480 300-2200-20-660-150-1370-630-1860-870-810-2760-1200-3880-1350l-510-50-490-180c-2620-840-5530-1380-8260-1830h-50l-70-30c-5050-970-11070-3390-11070-9510v-1860l1090-1480c1000-1300 2120-2680 3450-3650 1530-1120 3340-1710 5220-1710 1200 0 2660 230 3860 360 12920 1300 25930 1840 38910 1840 9640 0 19280-670 28840-1840 1430-180 2980-360 4410-360 2550 0 5130 410 7370 1640 2780 1530 4590 4130 4590 7360 0 6860-7800 8960-13210 9870-2370 390-4720 820-7040 1350-3060 690-5680 2040-7650 4490-2930 3730-5280 11960-6450 16480l-40930 148380-20 50c-590 1990-1100 4030-1400 6100-260 1700-390 3410-390 5120 0 1560 490 2600 1690 3570 2160 1760 5780 2650 8490 3110l100 30h100c2450 510 5100 710 7600 840 4920 250 11650 1480 12110 7650l30 200v210c0 3240-2320 6880-4060 9480-660 1020-1350 2020-2040 2990l-31260 49770c-970 1560-2060 3060-3360 4360-1280 1280-2760 2350-4420 3110l-1780 790-1890-510c-1710-430-3160-1420-4130-2880-820-1170-1170-2520-1380-3900l-50-380v-380c0-720 100-1460 230-2150 230-1470 640-3030 970-4460l6400-34270 30-80c250-1190 460-2440 610-3690 100-1070 200-2170 200-3270 0-1960-7770-3670-9020-3900-2960-530-6100-790-9080-1020-5050-380-10130-590-15170-760-15920-540-31880-640-47790-640-31160 0-62400 660-93510 2500-1910 120-4030 330-5940 330-2420 0-4690-740-6660-2170-2220-1660-3750-4000-3750-6830 0-5740 5330-8090 10180-8900zm297640-39040-1820 7830c-790 3440-1530 6930-2010 10450-410 2750-690 5560-820 8360 30 3550 490 8390 2890 11200 2090 2420 5530 2960 8590 2960 7040 0 13740-4130 19000-8470 9200-7620 17340-18490 23970-28380l2880-4310 14810 8470-2780 4820c-7440 12900-16980 26010-29090 34880-10560 7750-22440 11780-35520 11780-11070 0-21040-3520-28410-11980-7570-8750-10100-20050-10100-31370 0-10710 1940-21320 5100-31520 3390-10990 8260-21420 14330-31180 9000-14540 19940-28310 33410-38990 9970-7860 22390-15150 35470-15150 8010 0 15350 2400 21090 8080 5710 5660 8210 12910 8210 20890 0 16620-9260 30040-21450 40570-15910 13740-37920 23710-57750 31060zm187470-13310h-39240l-22010 68360h-34250l38330-122630v-50c790-2290 1450-4670 1940-7040 280-1450 610-3130 610-4610 0-560-80-1970-460-2480-180-70-530-70-690-70-4610 0-9020 4640-11680 7900-3110 3880-5840 8390-8280 12730-3680 6500-6990 13230-10130 20010l-2420 5260-15480-7960 9130-18640c4920-10050 11680-21880 20200-29300 7140-6250 15580-9410 25040-9410 7390 0 14350 2090 19380 7730 5070 5660 6630 13210 6630 20630 0 8520-3010 19020-5560 27100-360 1150-720 2300-1120 3400l-3060 9990h39450l20450-64330h34450l-38460 122500c-760 2730-1530 5530-2060 8310-280 1450-510 3010-510 4490 0 300 20 1040 250 1300 100 130 770 150 890 150 4470 0 8850-4460 11450-7650 3140-3800 5870-8310 8290-12570 3750-6580 7120-13440 10330-20300l2450-5220 15420 7950-9070 18620c-4920 10090-11630 21620-20120 29140-7170 6330-15610 9590-25170 9590-7350 0-14230-2140-19250-7700-5130-5640-6740-13210-6740-20660 0-8230 3120-18920 5540-26770 350-1170 740-2350 1070-3520l20-50 4440-14200zm146630-52020c4230-6580 8900-12750 14020-18190 8820-9280 20020-17080 33300-17080 7040 0 13060 2650 17420 8210 4510 5740 5970 12980 5970 20120 0 610-30 1200-50 1790 3820-5410 7900-10510 12290-14920 8510-8540 19070-15200 31520-15200 7340 0 13640 2800 18280 8540 4820 5970 6450 13520 6450 21040 0 5840-820 11780-1960 17490-1510 7500-3620 14970-5920 22290l-19250 59110v50c-640 1780-1150 3600-1530 5430-260 1250-510 2700-510 3980 0 150 0 480 70 690 230 100 900 130 1080 130 3620 0 8490-5610 10480-8110 3160-4010 5990-8520 8560-12910 3800-6470 7300-13180 10610-19910l2420-4850 14340 6680-1890 4850c-5410 13850-12670 29120-22670 40260-7600 8440-17160 14790-28870 14790-7140 0-13510-2340-18330-7670-4900-5380-6760-12240-6760-19430 0-3930 610-7910 1450-11730 1050-4640 2430-9210 4010-13670l18560-54240c1940-5840 3980-11960 5410-17950 660-2880 1320-6200 1320-9180 0-1330-150-3750-990-4850-480-610-1300-660-2010-660-7860 0-20000 15910-24000 21420-12270 16860-20860 36340-27060 56150l-18070 57910h-33100l30060-100750c1840-6400 3600-12880 5080-19350 730-3320 1730-7700 1730-11100 0-910-100-3180-710-3920-260-330-1360-360-1690-360-7670 0-17800 13920-21550 19430-11370 16650-19550 36700-25930 55740l-20170 60310h-32720l19460-69640c3570-12800 6960-25730 9670-38730 1470-7120 3260-15860 3260-23160 0-530-100-2090-460-2520l-30-30c-170-120-810-150-990-150-3160 0-8010 6430-9560 8640-2960 4190-5540 8830-7880 13370-3290 6420-6300 13050-9130 19710l-2320 5450-15000-7520 1660-4640c5000-13950 11940-30190 21600-41590 7220-8520 16470-14840 27970-14840 7270 0 13570 2730 17750 8770 4360 6270 5430 14610 5430 22060 0 1480-20 2960-120 4440zm195780 6600c-11650 10610-24250 24460-26360 36590l-920 5330-17190-2500 690-5430c1070-8080 3780-15630 8080-22510 5000-8010 12270-15070 19510-21040 2220-1810 4590-3520 6860-5250 9260-7120 17700-16320 20630-27880l9360-36790c660-2810 1730-5840 3820-7910 2300-2290 5460-3030 8620-3030 3680 0 8340 130 11840 1300 4000 1350 6830 4440 6830 8800 0 1470-360 3130-690 4560-430 1960-890 3930-1320 5870l-30 100-12390 46590c2140-2380 4360-4590 6700-6630 8060-6990 17550-11730 28380-11730 12090 0 22090 4840 29460 14400 8000 10410 10610 23410 10610 36260 0 13420-3010 26730-7600 39270-5000 13750-11890 26550-20680 38230-7040 9330-15530 17820-25660 23760-9150 5360-19070 8270-29680 8270-6430 0-12650-1410-18050-5000-1560-1020-2960-2190-4240-3470l-13210 50360c-1040 3960-1980 7930-2720 11940-390 1960-850 4460-850 6470 0 1430 210 2610 1510 3320 3060 1710 11630 2320 15120 2520l7370 440-5810 16440h-81350l3830-16320 4310-100c4940-120 11800-920 15550-4540 4460-4280 8750-20350 10250-26240l39420-154450zm294350-24220c-660-110-1350-130-1990-130-4260 0-7950 1530-11290 4080-4770 3620-8700 9130-11710 14250-8540 14510-15500 29890-20630 45930-4050 12570-7620 26930-7620 40210 0 5000 740 10940 3900 15020 2500 3240 5840 4390 9890 4390 8110 0 15050-3600 21040-8900 8770-7780 15730-19330 20960-29710l2650-5250 14540 8360-1940 4540c-5790 13620-13850 27030-25400 36520-10300 8490-22230 12900-35600 12900-12540 0-24760-3240-33350-12850-8770-9850-11250-23460-11250-36260 0-11450 2070-22720 5690-33590 3850-11650 9460-22590 16350-32740 8390-12370 18480-23840 30750-32490 9770-6880 21140-12260 33330-12260 7980 0 15580 1990 22000 6810 5900 4460 9800 10430 9800 17970 0 4770-1350 9240-4410 12930-3010 3600-7040 5740-11790 5740-4230 0-8390-1020-11700-3820-3320-2780-4950-6630-4950-10970 0-3770 900-7390 2730-10680zm86500 142540c-13650 0-26190-4000-35420-14360-9510-10630-12600-24580-12600-38500 0-12950 2120-25680 6220-37970 4210-12600 10300-24350 18110-35090 7190-9890 15880-18590 26310-25010 9230-5720 19380-9260 30320-9260 14080 0 25610 5690 34050 16980 9200 12320 12110 27800 12110 42890 0 12730-2480 25200-6730 37160-4520 12620-10990 24320-19080 35030-6450 8570-14330 15640-23810 20680-9210 4880-19050 7450-29480 7450zm128770-139080h-300c-4130 0-8700 5640-10840 8620-3040 4180-5640 8900-7980 13520-3390 6650-6430 13540-9280 20450l-1990 4870-16040-5610 1860-5280c5100-14330 12090-30420 22000-42130 7450-8840 17040-15550 29000-15550 7440 0 14000 2650 18510 8700 4670 6270 5920 14530 5920 22130 0 2170-100 4360-280 6550 4710-7060 9870-13770 15550-19630 9110-9390 20840-17750 34450-17750 8980 0 16810 3160 22650 10070 6090 7190 8180 16350 8180 25600 0 4080-410 8160-1090 12190-770 4440-1840 8830-3240 13110l-21190 65460c-770 2730-1610 5630-2120 8440-260 1400-460 2880-460 4310 0 380 50 920 330 1220 210 210 510 230 820 230 4310 0 9250-5530 11680-8540 3180-3980 5990-8470 8540-12880 3570-6190 6810-12650 9870-19100l2520-5330 14820 8090-8140 18410c-4610 10380-10760 20860-19380 28400-7520 6560-16270 10510-26310 10510-7350 0-14230-2140-19250-7670-5130-5670-6760-13240-6760-20690 0-4150 640-8380 1530-12440 1320-6020 3240-12110 5150-18000l20-50 17170-50900c1500-4490 2950-9130 3970-13770 640-2980 1200-6200 1200-9260 0-1480-180-4050-1200-5250-810-920-2570-1050-3690-1050-12070 0-24250 16960-29990 25780-6780 10430-12450 21760-17420 33130-6350 14510-11680 29500-16450 44600l-9790 31030h-34190l19300-64440c3750-12520 7090-25240 9540-38070 1730-9000 3340-18890 3340-28070 0-870-80-3040-540-3960zm210450-2470c2150-2350 4390-4590 6710-6600 8060-6990 17540-11730 28380-11730 12090 0 22110 4840 29480 14400 8010 10380 10610 23410 10610 36260 0 13420-3040 26730-7630 39270-4990 13750-11880 26550-20680 38230-7040 9360-15500 17820-25650 23760-9130 5360-19050 8270-29680 8270-6400 0-12650-1410-18060-5000-1550-1020-2950-2190-4230-3470l-13210 50360c-1040 3960-1990 7930-2730 11940-350 1960-840 4460-840 6470 0 1430 210 2610 1510 3320 3060 1710 11650 2320 15120 2520l7370 440-5790 16440h-81370l3850-16320 4310-100c4950-120 11780-920 15550-4540 4470-4280 8720-20350 10230-26240l39420-154450c-11650 10610-24250 24460-26370 36590l-910 5330-17190-2500 710-5430c1050-8080 3750-15600 8060-22510 5000-8010 12270-15070 19530-21040 2220-1810 4590-3520 6860-5250 9260-7120 17680-16320 20610-27880l9380-36790c670-2810 1740-5840 3800-7910 2300-2290 5460-3030 8620-3030 3670 0 8340 130 11830 1300 4030 1350 6840 4440 6840 8800 0 1470-360 3130-690 4560-440 1960-870 3900-1330 5870l-20 100-12400 46560zm133600 141550c-13640 0-26220-4000-35450-14360-9510-10630-12570-24580-12570-38500 0-12950 2120-25680 6220-37970 4190-12600 10280-24350 18080-35090 7220-9890 15890-18590 26340-25010 9240-5720 19380-9260 30300-9260 14070 0 25630 5690 34040 16980 9210 12320 12110 27800 12110 42890 0 12730-2440 25200-6730 37160-4490 12620-10960 24320-19050 35030-6450 8570-14330 15640-23840 20680-9200 4880-19050 7450-29450 7450zm182090-85170c4470 1660 8700 3950 12420 7010 8470 6940 12420 16270 12420 27160 0 15430-6480 27970-18740 37280-13570 10330-30500 13720-47230 13720-13920 0-27330-3590-37070-14020-9900-10540-12980-24790-12980-38840 0-13030 2340-25760 6700-38000 4390-12360 10660-23790 18870-34010 8470-10610 18570-19740 30600-26170 11220-6010 23280-9150 36010-9150 9030 0 17570 2350 24400 8410 6610 5920 9740 13600 9740 22420 0 12440-6960 22800-15760 31010-5810 5430-12360 9740-19380 13180zm97310 85170c-13640 0-26190-4000-35440-14360-9490-10630-12570-24580-12570-38500 0-12950 2110-25680 6220-37970 4200-12620 10300-24350 18100-35090 7190-9870 15890-18590 26320-25010 9230-5720 19380-9260 30320-9260 14070 0 25600 5690 34040 16980 9180 12320 12090 27800 12090 42890 0 12730-2450 25200-6710 37160-4490 12620-10990 24320-19050 35030-6450 8570-14380 15640-23870 20680-9180 4880-19040 7450-29450 7450zm247630-73210h-11060l-20430 68670h-34140l20910-68670h-13320c-7570 19230-18510 36670-33760 50870-12590 11760-28400 22010-46250 22010-8450 0-16710-1860-23720-6780-6370-4470-10560-10660-10560-18590 0-3730 1180-7170 3570-10000 2480-2910 5790-4610 9640-4610 8030 0 14330 6630 18670 12690 2320 3270 6370 8060 10810 8060 2070 0 4390-1810 5810-3080 4190-3800 8160-9540 11250-14230 8670-13240 15020-27920 19790-42970 4330-13620 7720-28460 7720-42810 0-5000-760-10890-3970-14970-2550-3240-5890-4440-9970-4440-6860 0-12930 2400-18470 6380-7240 5220-13080 12900-17690 20450l-2830 4660-14640-8460 2730-4820c6020-10510 13720-20220 23790-27110 9330-6370 19710-9560 31010-9560 12590 0 24680 3360 33270 13030 8800 9920 11300 23510 11300 36390 0 4360-300 8720-920 13050-280 2020-610 4060-990 6070h13280l19540-64330h33270l-19200 64330h11940c7900-18150 18820-34580 33630-47910 12240-11020 27490-20630 44520-20630 8470 0 16530 2040 23520 6930 6290 4440 10760 10540 10760 18470 0 3720-1150 7160-3570 9990-2480 2910-5790 4620-9620 4620-8230 0-14510-6940-18790-13190-2300-3360-6320-8360-10860-8360-1860 0-4110 1890-5360 3060-4260 4080-8310 10000-11550 14890-8670 13240-15040 27950-19790 43020-4310 13620-7700 28540-7700 42890 0 4770 690 10610 3780 14490 2550 3180 6190 4150 10170 4150 6990 0 13230-2090 18970-6090 7120-5000 12750-12500 17140-19890l2800-4750 14690 8470-2700 4790c-5970 10540-13670 20380-23740 27240-9340 6350-19770 9460-31060 9460-12520 0-24710-3210-33280-12880-8770-9890-11140-23710-11140-36540 0-4920 380-9840 1120-14740 460-2930 1020-5840 1680-8720zm210760-84990c-690-9410-2600-18720-6170-27520-4340-10600-10790-19680-19230-27410-3900-3570-8410-6730-12850-9540-4110-2570-11070-6930-11400-12310l-150-2370 5660-6200 3190 770c24120 5780 42250 20290 55280 41280 14740 23820 20020 51460 20020 79180 0 30340-5990 60480-22750 86240-13460 20630-32030 36080-57580 36080-13610 0-26190-3950-35440-14250-9540-10640-12570-24690-12570-38610 0-12950 2090-25680 6190-37970 4210-12620 10250-24400 18130-35110 7270-9870 16070-18700 26550-25150 9150-5660 19230-9100 30060-9100 3600 0 7190 430 10660 1330 820 200 1610 430 2400 660zm80830 98610-1830 7830c-790 3440-1510 6930-2020 10430-380 2800-660 5610-810 8410 20 3540 480 8360 2880 11140 2120 2480 5530 2990 8590 2990 7040 0 13750-4130 19000-8470 9210-7650 17340-18490 23970-28380l2880-4310 14840 8470-2800 4840c-7420 12880-16960 25990-29070 34860-10560 7750-22440 11780-35550 11780-11070 0-21010-3520-28380-11980-7570-8750-10100-20020-10100-31370 0-10710 1910-21320 5080-31520 3390-11010 8260-21420 14330-31180 9020-14540 19940-28310 33400-38990 9970-7860 22390-15150 35470-15150 8010 0 15350 2400 21090 8080 5740 5660 8210 12910 8210 20890 0 16620-9230 30040-21440 40570-15920 13740-37900 23710-57740 31060zm187480-13310h-39270l-22010 68360h-34270l38350-122580c740-2340 1480-4740 1940-7160 310-1430 610-3110 610-4590 0-540-70-1990-460-2480-170-70-530-70-680-70-4590 0-9060 4640-11680 7900-3110 3880-5840 8390-8290 12730-3650 6500-6960 13230-10100 20010l-2450 5260-15470-7960 9120-18640c4930-10070 11680-21850 20200-29300 7140-6250 15580-9410 25070-9410 7370 0 14330 2090 19350 7700 5080 5690 6630 13240 6630 20660 0 8520-2980 19020-5530 27100-360 1150-720 2270-1120 3400l-3060 9990h39420l20450-64330h34420l-38420 122520c-770 2710-1530 5510-2070 8290-280 1430-530 3010-530 4490 0 300 50 1040 280 1300 120 130 710 150 860 150 4490 0 8850-4460 11480-7650 3110-3800 5840-8310 8290-12570 3740-6580 7140-13440 10320-20300l2480-5220 15420 7950-9100 18620c-4920 10120-11630 21590-20140 29140-7140 6300-15590 9590-25120 9590-7350 0-14260-2140-19280-7670-5130-5670-6760-13240-6760-20690 0-8230 3140-18940 5560-26770 360-1170 740-2350 1070-3520l30-50 4460-14200zm174620 34750c-4840 7350-10220 14330-16110 20380-9080 9300-20780 17770-34320 17770-8980 0-16810-3140-22670-10000-6100-7110-8220-16190-8220-25390 0-4080 460-8160 1200-12170 840-4560 2150-9050 3620-13440l21070-66500v-80c810-2320 1480-4690 2040-7080 280-1230 660-2940 660-4210 0-770-80-2070-590-2710-20-20-50-70-100-100-100-50-360-50-480-50-4290 0-9260 5560-11630 8570-3210 4050-6040 8570-8620 13030-3620 6300-6880 12830-10000 19380l-2550 5410-14580-8240 8110-18310c4510-10530 10730-20990 19500-28530 7680-6610 16630-10410 26810-10410 7290 0 13990 2250 18870 7860 4940 5680 6520 13130 6520 20500 0 4380-690 8900-1600 13180-1280 5840-3110 11710-5100 17340l-17290 51460c-1460 4540-2880 9180-3950 13850-670 2960-1250 6170-1250 9200 0 1740 200 4590 1400 6000 890 1070 2340 1240 3640 1240 12040 0 24150-17080 29810-25900 6740-10510 12350-21910 17270-33330 6270-14610 11570-29710 16290-44880l10330-32000h34140l-19450 65380c-3750 12570-7010 25340-9460 38250-1660 8850-3270 18590-3270 27590 0 1220 110 3770 740 4890 3980-50 8440-5580 10480-8440 3040-4230 5640-9050 7960-13690 3490-6960 6630-14180 9590-21390l2160-5230 15480 6650-1810 4950c-5200 14200-12420 30980-22460 42480-7700 8830-17440 14870-29430 14870-7190 0-13390-2750-17570-8690-4360-6200-5480-14440-5480-21860 0-2520 130-5070 300-7600zm136530-42200c-3390-1990-6500-4440-9200-7420-5440-6070-8190-13310-8190-21450 0-14680 7040-26130 18870-34570 13490-9620 29890-12830 46160-12830h47600c2430 0 4440 1270 5920 3110l80 100 70 130c1150 1580 1840 3390 1840 5360v840l-35520 113370c-770 2400-1480 4900-1990 7370-330 1730-590 3540-590 5330 0 280 30 1040 260 1300 120 130 710 150 860 150 4520 0 8850-4460 11480-7650 3140-3800 5860-8310 8310-12570 3720-6580 7120-13440 10330-20300l2450-5220 15450 7950-9130 18640c-4950 10070-11630 21630-20140 29120-7140 6300-15580 9590-25120 9590-7350 0-14230-2140-19250-7670-5150-5670-6760-13240-6760-20690 0-8230 3140-18940 5560-26770 330-1120 710-2270 1020-3420l20-100 4520-14250h-8850c-5050 0-11710 680-15710 4130-4770 4050-9460 16670-11500 22440-3880 10910-10810 29070-19380 37150-6780 6430-15300 9180-24580 9180-5410 0-10640-1220-15070-4410-4440-3160-7470-7780-9570-12730l-430-1040v-2220c0-1760 360-3490 1200-5050l30-50 50-50c1270-2300 3460-3850 6140-3850 1070 0 2140 150 3160 460 1100 300 2170 760 3170 1320l1270 720 770 1250c430 710 1040 1500 1760 1990 380 230 710 350 1120 350 5580 0 9300-10350 10630-14430 1380-4230 2880-8770 4790-12830 4060-8560 9570-16190 16580-22560 2960-2710 6120-5130 9510-7220zm249160-57780c3210-3450 6660-6660 10380-9510 9920-7680 21270-12550 33920-12550 13840 0 25210 5580 33730 16470 9260 11830 12420 26470 12420 41210 0 26270-7270 50340-23200 71270-13950 18340-32210 31240-55880 31240-13260 0-25520-3850-34320-14130-9180-10660-11830-25060-11830-38730 0-17390 3420-35680 7500-52510 5200-21470 12240-42430 20730-62800 4100-9820 9030-19330 14940-28180 4490-6730 10020-13740 16530-18610 7190-5410 16160-9210 24630-12070 4050-1370 8110-2780 12090-4380 2190-890 4640-1890 6680-3110 2090-1230 3970-3220 5480-5050 2340-2880 5530-6330 9540-6330h280l280 30c2320 230 4480 1150 5990 3010 1300 1680 1810 3700 1810 5810v610l-130 590c-5150 22930-21880 36750-43320 44600-4080 1510-8240 3110-12220 4970-11470 5360-19840 14690-26060 25530-4030 6960-7290 14660-9970 22620zm197320 99980c-4840 7370-10200 14330-16090 20380-9080 9300-20830 17770-34370 17770-8950 0-16780-3140-22650-10000-6090-7140-8180-16190-8180-25390 0-4080 400-8160 1170-12190 840-4540 2120-9030 3620-13420l21090-66500c760-2350 1500-4740 2040-7160 310-1280 640-2890 640-4210 0-790-80-2070-620-2730-20-30-50-50-70-80-100-50-360-50-460-50-4280 0-9260 5590-11650 8600-3220 4020-6050 8540-8620 13000-3600 6300-6890 12830-9970 19380l-2550 5410-14620-8210 8110-18340c4520-10530 10740-21010 19510-28530 7700-6610 16630-10410 26800-10410 7320 0 14030 2250 18900 7860 4920 5680 6500 13150 6500 20500 0 4380-690 8870-1610 13180-1250 5840-3130 11710-5120 17340l-17290 51440c-1450 4560-2830 9200-3900 13890-690 2940-1280 6170-1280 9180 0 1760 210 4590 1400 6000 900 1040 2350 1240 3650 1240 12040 0 24150-17080 29810-25900 6730-10510 12340-21910 17260-33330 6280-14610 11560-29710 16300-44860l10330-32020h34140l-19460 65380c-3740 12570-7030 25340-9480 38250-1660 8850-3270 18590-3270 27590 0 1300 130 3670 770 4890 4000-50 8410-5580 10450-8440 3040-4230 5640-9050 7990-13690 3490-6990 6630-14180 9610-21390l2170-5230 15420 6650-1780 4930c-5180 14250-12420 30980-22490 42500-7730 8830-17440 14870-29400 14870-7220 0-13390-2750-17570-8690-4360-6200-5460-14460-5460-21860 0-2520 100-5070 280-7600zm160120-49110c3410 2010 6520 4490 9180 7570 6370 7370 8890 16430 8890 26040 0 15660-6600 28530-18560 38530-12830 10710-28230 15120-44800 15120-10250 0-19970-2520-28180-8800-7420-5680-12190-13180-12190-22690 0-3780 1050-7370 3570-10230 2680-3030 6300-4380 10280-4380 4430 0 8230 1860 10960 5350 2650 3390 3750 7680 4110 11910 250 2910 990 7090 3160 9280 1960 1970 5660 2350 8290 2350 8620 0 15320-3340 20730-10050 6420-7950 8520-17930 8520-27950 0-5680-770-12490-4080-17290-2610-3770-6230-5450-10710-5910-1200-100-2380-210-3570-280-5490-360-12350-2170-12680-8850l-20-150v-130c0-8260 10990-9360 17080-9770 770-70 1560-150 2320-180 5330-400 9970-2210 13570-6240 3770-4240 5120-9440 5120-15020 0-5310-970-10940-4430-15150-2880-3520-6560-4900-11070-4900-5690 0-10990 1610-15960 4360-2320 1300-4640 2580-6990 3850-1580 850-3320 1940-5180 1940-2110 0-4130-710-5680-2140-1530-1330-2480-3110-2780-5120l-50-410v-410c0-7880 10090-13240 16160-16220 9340-4590 19280-6960 29690-6960 10910 0 20700 3390 28500 11120 7710 7620 11220 17180 11220 28000 0 10020-3820 18610-11220 25390-3870 3570-8390 6330-13200 8420zm142720 14360h-39220l-22030 68360h-34270l38350-122630v-70c790-2270 1480-4650 1940-7020 280-1420 610-3130 610-4610 0-560-80-1970-460-2480-180-70-540-70-690-70-4620 0-9030 4610-11680 7900-3110 3880-5840 8390-8290 12730-3670 6500-6980 13230-10120 20010l-2450 5260-15450-7960 9130-18640c4920-10050 11680-21850 20190-29300 7140-6250 15580-9410 25050-9410 7390 0 14350 2090 19380 7730 5070 5660 6650 13210 6650 20630 0 8490-3010 19000-5560 27080-360 1120-710 2240-1120 3370l-3090 10040h39480l20420-64330h34450l-38480 122500c-730 2730-1500 5560-2060 8340-280 1450-510 2980-510 4460 0 280 50 1070 280 1300 150 130 710 150 890 150 4460 0 8850-4490 11450-7650 3140-3800 5870-8310 8290-12570 3750-6580 7140-13440 10350-20300l2450-5220 15400 7980-9080 18590c-4920 10090-11620 21650-20120 29140-7160 6330-15600 9590-25160 9590-7320 0-14230-2140-19260-7700-5120-5660-6730-13210-6730-20660 0-8260 3110-18920 5540-26770 350-1120 730-2270 1040-3420l30-100 4460-14250zm115510 13310-1810 7830c-810 3440-1530 6930-2040 10430-380 2770-660 5580-790 8380 30 3550 490 8390 2860 11170 2120 2450 5530 2990 8590 2990 7040 0 13750-4110 19000-8470 9210-7650 17370-18490 24000-28380l2880-4310 14810 8470-2800 4840c-7420 12880-16960 25990-29070 34860-10560 7750-22440 11780-35520 11780-11100 0-21040-3520-28410-11980-7570-8750-10100-20050-10100-31370 0-10710 1940-21320 5080-31520 3390-11010 8260-21420 14330-31180 9020-14540 19960-28310 33430-38970 9940-7880 22390-15170 35440-15170 8010 0 15350 2400 21090 8080 5740 5660 8210 12910 8210 20890 0 16620-9230 30040-21440 40570-15920 13770-37900 23710-57740 31060zm171440-82950c-660-110-1350-130-1990-130-4230 0-7950 1530-11300 4080-4760 3620-8670 9130-11700 14250-8540 14510-15480 29890-20630 45930-4030 12570-7620 26950-7620 40210 0 5030 740 10920 3920 15020 2500 3240 5840 4390 9900 4390 8110 0 15040-3600 21010-8900 8800-7780 15760-19310 20960-29710l2650-5250 14540 8360-1940 4540c-5790 13620-13850 27030-25370 36520-10330 8510-22240 12900-35630 12900-12540 0-24730-3240-33350-12850-8770-9820-11220-23460-11220-36260 0-11450 2040-22720 5660-33590 3850-11650 9460-22590 16370-32760 8390-12350 18490-23820 30730-32470 9770-6880 21160-12260 33330-12260 8000 0 15580 1990 22030 6810 5920 4430 9790 10430 9790 17970 0 4770-1350 9240-4410 12930-3030 3620-7040 5740-11780 5740-4260 0-8390-1020-11730-3800-3320-2800-4950-6650-4950-10990 0-3770 890-7390 2730-10680zm113400 121120c-2630 3370-5530 6480-8720 9230-9490 8140-20630 12190-33150 12190-11710 0-21980-3950-29610-12980-7950-9410-10610-21420-10610-33480 0-11990 3090-23940 7420-35040 5080-13030 11910-25220 20200-36490 8700-11800 19100-22260 31420-30290 9810-6400 21240-11600 33170-11600 7350 0 14080 2140 19710 6930 1460 1280 2780 2630 3930 4110l840-2940 50-150c740-2090 1990-3870 3960-5000 1700-940 3620-1250 5550-1250 3730 0 7940 310 11430 1740 3800 1530 6760 4490 6760 8820 0 1330-110 2650-280 3950-210 1460-460 2910-850 4340l-20 50-26830 92900c-1170 4150-2140 8360-2830 12620-560 3210-1040 6650-1040 9920 0 990 120 2450 760 3240l30 50 50 50c250 300 530 300 940 300 3160 0 8390-7420 9870-9660 6600-10070 11700-22980 15810-34270l1910-5230 15180 5510-1310 4920c-3900 14640-9740 30650-19220 42660-7370 9360-16990 16270-29280 16270-6830 0-13720-1580-18710-6530-4110-4050-6000-9330-6530-14890zM2439830 498570l-72820 258120h42960c65510 0 127810-17090 171470-68680 27130-32070 42810-68690 42810-110900 0-30540-9820-56270-38580-69690-22620-10530-54320-12470-78920-12470-22340 0-44680 1300-66920 3620zm1647350 281600-8380-204410-142370 204410h150750zM681380 615360c13010 8830 24480 19970 32030 33890l9410 17370-17110-9890c-8550-4950-17650-9030-26960-12450-4540 39880-12800 79540-23860 118120 17210 27260 33200 59900 38250 92310 28050-19030 56170-42560 75930-69720 8270-11350 15460-23940 19740-37330 3650-11300 5150-23130 3340-34940-380-2470-920-4940-1580-7390-3800-13720-12190-25120-22670-34580l-24660-22260 30580 13000c29090 12400 57140 32720 65940 64650 790 2850 1430 5730 1860 8670 7600 49440-33660 96620-68410 126150-28360 24070-60900 44290-93950 61170-38530 19710-79280 35600-120690 48090-13390 18870-28300 37160-44900 53400 32990 10020 69610 17210 103710 15480 25720-1300 53900-8140 71750-28030 1710-1880 3270-3850 4750-5910 8210-11630 11700-25350 12360-39430l1530-33320 9360 32020c8870 30350 10940 64900-8160 91960-21700 30700-61280 39060-96690 38910-49070-200-101880-15890-147040-34710-17870 9770-38020 16300-58600 14720l-19710-1510 17600-9000c10120-5150 19680-11580 28630-18610-26950-13030-53110-27850-78280-44040-35240-80-72600-3470-106740-13310 5500 42480 21210 99700 62440 118160 2300 1050 4670 1940 7090 2710 13570 4260 27720 3410 41340-260l32130-8690-27570 18660c-26110 17670-58570 30250-90060 20350-2830-890-5610-1940-8320-3160-26460-11860-43190-37330-53490-63470-13320-33760-18030-73030-18640-109270-4010-2780-7830-5760-11430-9020l-24780-22320 30670 13060c1840 790 3650 1530 5510 2240 380-26080 2700-52220 6480-78000-24480-28100-47640-60000-63880-93790-27720 26190-58220 65310-52150 104810 380 2490 890 4970 1580 7390 1330 4820 3220 9410 5590 13800l9380 17360-17060-9890c-21700-12570-40290-30500-47120-55290-790-2830-1400-5730-1860-8670-3800-24780 4970-49160 17950-69940 16010-25630 39500-48120 63370-66630-510-5540-690-11070-440-16630l1580-33280 9340 31980c790 2750 1650 5480 2600 8180 46080-33040 99960-58590 153180-77440 10220-18820 21390-37150 33680-54700-21370-7950-43370-14660-65690-19300-20500-4280-41870-6990-62850-6480-29790 740-63300 8370-81530 34150-2880 4080-5230 8460-7110 13080l-7450 18360-3190-19560c-4050-24730-1960-50540 12860-71500 1700-2400 3540-4720 5530-6910 10890-12170 25120-20150 40540-25070 17850-5690 37210-7340 55850-6830 51610 1370 106920 19050 154100 39880 22360-23000 50970-45670 82160-54090l32180-8690-27590 18660c-22440 15180-42460 35700-59570 56890 29910 14900 58800 31980 86440 50700 48480-4110 102030-3270 149640 8850-180-35780-4260-74510-16630-107870-9100-24450-24270-49750-49030-60840-2320-1020-4670-1910-7090-2680-4770-1500-9670-2390-14640-2780l-19580-1550 17490-8950c22290-11400 47530-17290 71990-9590 34700 10890 54620 44140 65500 76780 14870 44470 16910 96950 13800 143610zm-149400 11580c27380 22770 53420 47610 76880 74410 4360-23590 7570-47430 9280-71320-28380-3780-57500-4470-86160-3090zm-233130 51610c-7750 19180-14710 38690-20910 58420-13230 42130-23120 85680-28530 129520 24330 22570 50310 43430 77420 62550 17410 12320 35340 23890 53700 34730 39990-4260 79740-12110 118500-22820 8620-2370 17210-4920 25750-7600 25860-44830 46310-93480 61790-142800 3110-9870 6020-19790 8720-29760-36130-41080-78510-77720-123110-109240-7420-5250-14970-10350-22570-15350-24610 4260-48980 9790-73060 16420-26310 7270-52300 15890-77700 25930zm34560-73130c560-150 1140-330 1730-480 14030-3880 28180-7370 42430-10490-9760-4920-19660-9580-29650-14020-5050 8210-9870 16550-14510 24990zM207720 824290c5100-24020 11400-47790 18740-71200 5300-16910 11170-33610 17600-50110-30550 15330-60490 33410-87140 54650 14740 23610 32160 45920 50800 66660zm429830-8500c-11300 31010-24590 61460-40010 90630 23810-10300 47120-21950 69410-35140-7650-19350-17950-38020-29400-55490zM304800 967110c-20660-15630-40570-32310-59500-50000-560 14860-480 29810 360 44670 19480 3240 39350 4870 59140 5330zm136960 28840c9870 4570 19890 8900 30010 12930 5940-6810 11630-13850 17090-21040-15610 3220-31340 5920-47100 8110zM314000 164070c11250-5890 21420-13470 30070-23030 7260-8060 15580-19460 15580-30830 0-2070-360-4280-1760-5890-1070-1220-2300-1660-3930-1660-8590 0-17370 12340-21390 18640-8190 12830-14110 27870-18570 42770zm538310 46180c0 4610 760 9740 3620 13490 2110 2780 4660 4050 8160 4050 5580 0 10660-3140 14740-6730 6630-5840 11930-14230 16060-22010 6710-12570 11860-25910 15710-39620 3190-11350 6120-24280 6120-36110 0-4590-560-10710-3440-14490-2250-2900-5360-3820-8930-3820-4460 0-8900 3130-12060 5970-6320 5680-11760 13460-16140 20680-7520 12410-13340 25730-17520 39620-3820 12570-6320 25780-6320 38970zm368010-76020c-5450 12160-9640 24890-12750 37840-2600 10820-4840 22670-4840 33820 0 5890 990 12390 4790 17110 3140 3950 7290 5430 12270 5430 5400 0 10040-2070 14200-5460 5480-4490 9490-10890 12440-17260 5920-12650 10460-25910 13770-39480 2960-11980 5230-24780 5230-37150 0-6450-760-14640-4440-20170-2620-3930-6060-5640-10760-5640-5630 0-10370 3090-14280 6910-6520 6430-11730 15810-15630 24050zm314750 76020c0 4610 740 9710 3620 13490 2090 2780 4640 4050 8130 4050 5610 0 10660-3140 14740-6730 6660-5840 11960-14260 16090-22010 6680-12570 11840-25910 15710-39620 3190-11350 6100-24280 6100-36110 0-4570-540-10740-3450-14490-2210-2930-5350-3820-8920-3820-4440 0-8900 3130-12060 5970-6330 5660-11730 13460-16120 20680-7520 12410-13340 25730-17540 39620-3800 12570-6300 25780-6300 38970zm158050-76020c-5460 12160-9620 24860-12750 37840-2600 10820-4850 22670-4850 33820 0 5890 1020 12390 4800 17110 3160 3950 7290 5430 12290 5430 5400 0 10040-2070 14180-5460 5500-4490 9480-10890 12470-17260 5910-12650 10420-25910 13770-39480 2930-11980 5200-24780 5200-37150 0-6450-770-14640-4440-20170-2600-3930-6070-5640-10760-5640-5640 0-10380 3090-14280 6910-6530 6430-11730 15810-15630 24050zm125920 40550c-690 3590-1230 7210-1640 10830-610 5330-910 10690-910 16070 0 6550 740 15500 4610 21060 2990 4290 7370 5690 12470 5690 8820 0 16120-3010 21910-9720 6550-7570 8720-17210 8720-27030 0-5250-1070-10630-5030-14350-4150-3910-10150-4900-15630-4900-4360 0-8720 280-13050 740-3850 410-7650 970-11450 1610zm4990-18310c12700-870 25890-3830 36190-11150 9870-7030 14760-16290 14760-28400 0-3570-530-7780-2720-10740-1590-2090-3470-2910-6070-2910-9900 0-17600 6970-23310 14390-8360 10880-14380 25290-18850 38810zm148520-22240c-5460 12160-9640 24860-12750 37840-2600 10820-4850 22670-4850 33820 0 5890 1000 12390 4770 17110 3160 3920 7290 5430 12290 5430 5410 0 10050-2070 14200-5460 5490-4490 9490-10890 12450-17260 5910-12650 10430-25910 13770-39480 2930-11960 5200-24780 5200-37150 0-6450-760-14640-4440-20170-2600-3930-6040-5640-10730-5640-5640 0-10380 3090-14310 6910-6530 6430-11730 15810-15600 24050zm394790 70250c0 6050 840 13570 4640 18570 3080 4050 7440 5380 12440 5380 5230 0 9740-1890 13750-5200 5530-4590 9790-11630 12950-17960 6020-12060 10460-24880 13720-37970 3090-12410 5200-25370 5200-38220 0-6350-690-14870-4230-20370-2550-3930-6020-5440-10630-5440-5820 0-10770 3240-14790 7170-6610 6430-11660 15430-15430 23740-5460 12110-9720 24710-12850 37590-2550 10430-4770 21930-4770 32710zm148820-40410c11240-5890 21420-13470 30030-23030 7300-8060 15610-19460 15610-30830 0-2090-380-4260-1780-5890-1050-1220-2270-1660-3910-1660-8560 0-17360 12370-21390 18640-8190 12830-14100 27870-18560 42770zm557880-56590c-2620-640-8970-610-11090-610-9760 0-21240 1500-29020 7930-6860 5660-9130 13590-9130 22260 0 4410 670 9950 3960 13240 3210 3260 8440 3970 12800 3970h17970l12170-37890 50-80c690-1980 1300-4000 1780-6060 210-790 440-1840 510-2760zm179290 97000c0 6050 820 13570 4620 18570 3110 4050 7450 5380 12440 5380 5230 0 9720-1860 13750-5200 5530-4590 9790-11610 12950-17960 6020-12060 10430-24910 13720-37970 3090-12410 5230-25370 5230-38220 0-6370-690-14870-4280-20370-2530-3930-6000-5440-10610-5440-5820 0-10760 3240-14790 7170-6610 6430-11660 15400-15430 23740-5480 12110-9690 24710-12850 37610-2550 10430-4750 21910-4750 32690zm626280-40410c11250-5890 21400-13470 30040-23030 7300-8060 15640-19460 15640-30830 0-2090-390-4280-1790-5890-1070-1220-2290-1660-3900-1660-8590 0-17370 12340-21400 18640-8210 12830-14120 27870-18590 42770zm229280 46510c0 4590 840 9360 3820 13030 2370 2910 5280 4180 9030 4180 5860 0 10860-2730 15140-6600 7040-6350 13210-16450 17750-24710 7930-14330 14740-29300 19870-44860 3520-10610 7210-23790 7210-35010 0-3590-690-7290-3130-10070-2090-2370-4700-3270-7830-3270-6760 0-12850 4110-17620 8520-8290 7680-15100 18340-20430 28200-6930 12930-13210 26500-17870 40420-3140 9390-5940 20200-5940 30170z"/>
  </g>
</svg>